<?xml version="1.0" standalone="no"?>
<!DOCTYPE svg PUBLIC "-//W3C//DTD SVG 20010904//EN"
 "http://www.w3.org/TR/2001/REC-SVG-20010904/DTD/svg10.dtd">
<svg version="1.0" xmlns="http://www.w3.org/2000/svg"
 width="200.000000pt" height="200.000000pt" viewBox="0 0 200.000000 200.000000"
 preserveAspectRatio="xMidYMid meet">
<metadata>
Created by potrace 1.11, written by Peter Selinger 2001-2013
</metadata>
<g transform="translate(0.000000,200.000000) scale(0.100000,-0.100000)"
fill="#000000" stroke="none">
<path d="M754 1775 c-95 -17 -135 -30 -219 -72 -267 -134 -432 -403 -433 -704
0 -43 1 -79 3 -79 1 0 14 17 28 38 17 26 27 59 32 103 45 430 429 727 846 654
285 -50 509 -255 583 -535 19 -74 26 -129 17 -134 -8 -6 -79 41 -201 132 -144
109 -249 152 -378 157 -131 5 -230 -35 -328 -132 l-59 -57 79 -14 c43 -7 147
-38 230 -68 164 -61 275 -94 315 -94 43 0 56 -15 26 -28 -14 -7 -34 -12 -44
-12 -27 0 -186 47 -236 70 -145 66 -248 97 -331 99 -23 1 -33 7 -37 20 -4 17
-12 19 -59 16 -67 -4 -179 -31 -233 -56 -66 -31 -138 -101 -170 -165 -23 -49
-29 -72 -29 -134 -1 -66 3 -82 33 -140 120 -231 334 -383 590 -420 166 -25
344 7 491 88 150 82 285 234 350 395 21 51 32 64 92 103 67 45 178 140 178
153 0 3 -22 7 -49 7 -26 1 -74 9 -105 18 -46 14 -56 21 -57 39 -2 95 -37 236
-81 322 -162 320 -500 493 -844 430z m-104 -692 c0 -36 51 -125 102 -179 93
-98 219 -181 330 -218 130 -43 305 -35 437 20 19 8 35 13 37 11 5 -5 -40 -90
-74 -137 -109 -156 -278 -263 -471 -298 -52 -9 -216 -9 -256 1 -117 29 -188
58 -266 111 -104 70 -205 185 -253 290 -23 50 -18 144 12 201 57 111 224 206
375 214 20 1 27 -4 27 -16z"/>
</g>
</svg>
